<svg width="134" height="164" viewBox="0 0 134 164" fill="none" xmlns="http://www.w3.org/2000/svg">

<g id="Export bilayer">
<g id="bilbo-symbol-bilayer">
<g id="Group">
<circle id="Head" cx="24.9191" cy="24.948" r="12.948" fill="#BA7517"/>
<rect id="Tail" x="16.0173" y="37.896" width="5.66474" height="38.8439" rx="2.83237" fill="#BA7517"/>
<rect id="Tail_2" x="28.1561" y="37.896" width="5.66474" height="38.8439" rx="2.83237" fill="#BA7517"/>
<circle id="Head_2" cx="24.9191" cy="139.052" r="12.948" fill="#1D9E75"/>
<rect id="Tail_3" x="16.0173" y="87.2601" width="5.66474" height="38.8439" rx="2.83237" fill="#1D9E75"/>
<rect id="Tail_4" x="28.1561" y="87.2601" width="5.66474" height="38.8439" rx="2.83237" fill="#1D9E75"/>
<circle id="Head_3" cx="67" cy="24.948" r="12.948" fill="#D85A30"/>
<rect id="Tail_5" x="58.0983" y="37.896" width="5.66474" height="38.8439" rx="2.83237" fill="#D85A30"/>
<rect id="Tail_6" x="70.237" y="37.896" width="5.66474" height="38.8439" rx="2.83237" fill="#D85A30"/>
<circle id="Head_4" cx="67" cy="139.052" r="12.948" fill="#BA7517"/>
<rect id="Tail_7" x="58.0983" y="87.2601" width="5.66474" height="38.8439" rx="2.83237" fill="#BA7517"/>
<rect id="Tail_8" x="70.237" y="87.2601" width="5.66474" height="38.8439" rx="2.83237" fill="#BA7517"/>
<circle id="Head_5" cx="109.081" cy="24.948" r="12.948" fill="#1D9E75"/>
<rect id="Tail_9" x="100.179" y="37.896" width="5.66474" height="38.8439" rx="2.83237" fill="#1D9E75"/>
<rect id="Tail_10" x="112.318" y="37.896" width="5.66474" height="38.8439" rx="2.83237" fill="#1D9E75"/>
<circle id="Head_6" cx="109.081" cy="139.052" r="12.948" fill="#D85A30"/>
<rect id="Tail_11" x="100.179" y="87.2601" width="5.66474" height="38.8439" rx="2.83237" fill="#D85A30"/>
<rect id="Tail_12" x="112.318" y="87.2601" width="5.66474" height="38.8439" rx="2.83237" fill="#D85A30"/>
</g>
</g>
</g>
</svg>
