<svg width="164" height="164" viewBox="0 0 164 164" fill="none" xmlns="http://www.w3.org/2000/svg">

<g id="Export grid">
<g id="bilbo-symbol-grid">
<g id="Group">
<circle id="Head" cx="37.8841" cy="28.5586" r="16.5586" fill="#BA7517"/>
<rect id="Tail direction" x="51.6475" y="32.1467" width="13.1089" height="6.8994" rx="3.4497" transform="rotate(28.6479 51.6475 32.1467)" fill="#BA7517"/>
<circle id="Head_2" cx="86.1799" cy="28.5586" r="16.5586" fill="#1D9E75"/>
<rect id="Tail direction_2" x="83.5743" y="42.5413" width="13.1089" height="6.8994" rx="3.4497" transform="rotate(114.592 83.5743 42.5413)" fill="#1D9E75"/>
<circle id="Head_3" cx="134.476" cy="28.5586" r="16.5586" fill="#D85A30"/>
<rect id="Tail direction_3" x="120.575" y="25.5459" width="13.1089" height="6.8994" rx="3.4497" transform="rotate(-153.735 120.575 25.5459)" fill="#D85A30"/>
<circle id="Head_4" cx="37.8841" cy="76.8545" r="16.5586" fill="#378ADD"/>
<rect id="Tail direction_4" x="26.8833" y="85.8704" width="13.1089" height="6.8994" rx="3.4497" transform="rotate(154.699 26.8833 85.8704)" fill="#378ADD"/>
<circle id="Head_5" cx="86.1799" cy="76.8545" r="16.5586" fill="#639922"/>
<rect id="Tail direction_5" x="89.5972" y="63.0476" width="13.1089" height="6.8994" rx="3.4497" transform="rotate(-62.0619 89.5972 63.0476)" fill="#639922"/>
<circle id="Head_6" cx="134.476" cy="76.8545" r="16.5586" fill="#7F77DD"/>
<rect id="Tail direction_6" x="144.834" y="86.6018" width="13.1089" height="6.8994" rx="3.4497" transform="rotate(57.2958 144.834 86.6018)" fill="#7F77DD"/>
<circle id="Head_7" cx="37.8841" cy="125.15" r="16.5586" fill="#BA7517"/>
<rect id="Tail direction_7" x="29.193" y="113.891" width="13.1089" height="6.8994" rx="3.4497" transform="rotate(-113.628 29.193 113.891)" fill="#BA7517"/>
<circle id="Head_8" cx="86.1799" cy="125.15" r="16.5586" fill="#1D9E75"/>
<rect id="Tail direction_8" x="93.195" y="137.523" width="13.1089" height="6.8994" rx="3.4497" transform="rotate(74.4845 93.195 137.523)" fill="#1D9E75"/>
<circle id="Head_9" cx="134.476" cy="125.15" r="16.5586" fill="#D85A30"/>
<rect id="Tail direction_9" x="121.451" y="119.436" width="13.1089" height="6.8994" rx="3.4497" transform="rotate(-142.276 121.451 119.436)" fill="#D85A30"/>
</g>
</g>
</g>
</svg>
