<svg width="443" height="148" viewBox="0 0 443 148" fill="none" xmlns="http://www.w3.org/2000/svg">

<g id="Export grid">
<g id="bilbo-lockup-grid">
<g id="Group">
<circle id="Head" cx="28.3265" cy="23.6124" r="15.6124" fill="#CC7A5C"/>
<rect id="Tail direction" x="41.3034" y="26.9954" width="12.3598" height="6.50515" rx="3.25257" transform="rotate(28.6479 41.3034 26.9954)" fill="#CC7A5C"/>
<circle id="Head_2" cx="73.8625" cy="23.6124" r="15.6124" fill="#CC7A5C"/>
<rect id="Tail direction_2" x="71.4059" y="36.7961" width="12.3598" height="6.50515" rx="3.25257" transform="rotate(114.592 71.4059 36.7961)" fill="#CC7A5C"/>
<circle id="Head_3" cx="119.399" cy="23.6124" r="15.6124" fill="#CC7A5C"/>
<rect id="Tail direction_3" x="106.292" y="20.7717" width="12.3598" height="6.50515" rx="3.25257" transform="rotate(-153.735 106.292 20.7717)" fill="#CC7A5C"/>
<circle id="Head_4" cx="28.3265" cy="69.1485" r="15.6124" fill="#CC7A5C"/>
<rect id="Tail direction_4" x="17.9543" y="77.6492" width="12.3598" height="6.50515" rx="3.25257" transform="rotate(154.699 17.9543 77.6492)" fill="#CC7A5C"/>
<circle id="Head_5" cx="73.8625" cy="69.1485" r="15.6124" fill="#CC7A5C"/>
<rect id="Tail direction_5" x="77.0845" y="56.1304" width="12.3598" height="6.50515" rx="3.25257" transform="rotate(-62.0619 77.0845 56.1304)" fill="#CC7A5C"/>
<circle id="Head_6" cx="119.399" cy="69.1485" r="15.6124" fill="#CC7A5C"/>
<rect id="Tail direction_6" x="129.165" y="78.3389" width="12.3598" height="6.50515" rx="3.25257" transform="rotate(57.2958 129.165 78.3389)" fill="#CC7A5C"/>
<circle id="Head_7" cx="28.3265" cy="114.684" r="15.6124" fill="#CC7A5C"/>
<rect id="Tail direction_7" x="20.132" y="104.068" width="12.3598" height="6.50515" rx="3.25257" transform="rotate(-113.628 20.132 104.068)" fill="#CC7A5C"/>
<circle id="Head_8" cx="73.8625" cy="114.684" r="15.6124" fill="#CC7A5C"/>
<rect id="Tail direction_8" x="80.4768" y="126.351" width="12.3598" height="6.50515" rx="3.25257" transform="rotate(74.4845 80.4768 126.351)" fill="#CC7A5C"/>
<circle id="Head_9" cx="119.399" cy="114.684" r="15.6124" fill="#CC7A5C"/>
<rect id="Tail direction_9" x="107.118" y="109.297" width="12.3598" height="6.50515" rx="3.25257" transform="rotate(-142.276 107.118 109.297)" fill="#CC7A5C"/>
</g>
<path id="BILBO" d="M186.835 105V41.888H221.243C224.616 41.888 227.622 42.532 230.259 43.82C232.958 45.108 235.074 46.9173 236.607 49.248C238.14 51.5787 238.907 54.308 238.907 57.436C238.907 59.828 238.447 62.0053 237.527 63.968C236.607 65.9307 235.35 67.5867 233.755 68.936C232.222 70.224 230.474 71.2053 228.511 71.88V72.248C230.842 72.7387 232.927 73.6893 234.767 75.1C236.607 76.4493 238.048 78.1973 239.091 80.344C240.134 82.4293 240.655 84.852 240.655 87.612C240.655 91.5373 239.766 94.788 237.987 97.364C236.27 99.94 233.939 101.872 230.995 103.16C228.112 104.387 224.862 105 221.243 105H186.835ZM198.795 94.788H219.679C222.194 94.788 224.248 94.1133 225.843 92.764C227.499 91.3533 228.327 89.176 228.327 86.232C228.327 84.5147 227.99 83.012 227.315 81.724C226.64 80.436 225.598 79.4547 224.187 78.78C222.838 78.044 221.09 77.676 218.943 77.676H198.795V94.788ZM198.795 67.648H218.115C219.955 67.648 221.488 67.3107 222.715 66.636C224.003 65.9613 224.954 65.0413 225.567 63.876C226.242 62.7107 226.579 61.4227 226.579 60.012C226.579 57.3133 225.843 55.32 224.371 54.032C222.96 52.744 221.09 52.1 218.759 52.1H198.795V67.648ZM253.632 105V41.888H265.592V105H253.632ZM281.437 105V41.888H293.397V94.604H325.045V105H281.437ZM335.746 105V41.888H370.154C373.527 41.888 376.532 42.532 379.17 43.82C381.868 45.108 383.984 46.9173 385.518 49.248C387.051 51.5787 387.818 54.308 387.818 57.436C387.818 59.828 387.358 62.0053 386.438 63.968C385.518 65.9307 384.26 67.5867 382.666 68.936C381.132 70.224 379.384 71.2053 377.422 71.88V72.248C379.752 72.7387 381.838 73.6893 383.678 75.1C385.518 76.4493 386.959 78.1973 388.002 80.344C389.044 82.4293 389.566 84.852 389.566 87.612C389.566 91.5373 388.676 94.788 386.898 97.364C385.18 99.94 382.85 101.872 379.906 103.16C377.023 104.387 373.772 105 370.154 105H335.746ZM347.706 94.788H368.59C371.104 94.788 373.159 94.1133 374.754 92.764C376.41 91.3533 377.238 89.176 377.238 86.232C377.238 84.5147 376.9 83.012 376.226 81.724C375.551 80.436 374.508 79.4547 373.098 78.78C371.748 78.044 370 77.676 367.854 77.676H347.706V94.788ZM347.706 67.648H367.026C368.866 67.648 370.399 67.3107 371.626 66.636C372.914 65.9613 373.864 65.0413 374.478 63.876C375.152 62.7107 375.49 61.4227 375.49 60.012C375.49 57.3133 374.754 55.32 373.282 54.032C371.871 52.744 370 52.1 367.67 52.1H347.706V67.648ZM431.523 106.104C424.96 106.104 419.287 104.939 414.503 102.608C409.719 100.216 406.039 96.5973 403.463 91.752C400.948 86.9067 399.691 80.804 399.691 73.444C399.691 66.0227 400.948 59.92 403.463 55.136C406.039 50.2907 409.719 46.7027 414.503 44.372C419.287 41.98 424.96 40.784 431.523 40.784C438.147 40.784 443.82 41.98 448.543 44.372C453.327 46.7027 456.976 50.2907 459.491 55.136C462.067 59.92 463.355 66.0227 463.355 73.444C463.355 80.804 462.067 86.9067 459.491 91.752C456.976 96.5973 453.327 100.216 448.543 102.608C443.82 104.939 438.147 106.104 431.523 106.104ZM431.523 95.984C434.712 95.984 437.503 95.524 439.895 94.604C442.348 93.684 444.403 92.3347 446.059 90.556C447.715 88.716 448.972 86.4773 449.831 83.84C450.689 81.1413 451.119 78.044 451.119 74.548V72.524C451.119 68.9667 450.689 65.8387 449.831 63.14C448.972 60.4413 447.715 58.2027 446.059 56.424C444.403 54.584 442.348 53.204 439.895 52.284C437.503 51.364 434.712 50.904 431.523 50.904C428.333 50.904 425.512 51.364 423.059 52.284C420.667 53.204 418.643 54.584 416.987 56.424C415.331 58.2027 414.073 60.4413 413.215 63.14C412.417 65.8387 412.019 68.9667 412.019 72.524V74.548C412.019 78.044 412.417 81.1413 413.215 83.84C414.073 86.4773 415.331 88.716 416.987 90.556C418.643 92.3347 420.667 93.684 423.059 94.604C425.512 95.524 428.333 95.984 431.523 95.984Z" fill="#FAEEDA" transform="translate(-29,0)"/>
</g>
</g>
</svg>
